<svg aria-hidden="true" style="position: absolute; width: 0; height: 0; overflow: hidden;" version="1.1" xmlns="http://www.w3.org/2000/svg" xmlns:xlink="http://www.w3.org/1999/xlink">
<defs>
<symbol id="icon-light-bulb" viewBox="0 0 32 32">
<path d="M18.691 20.015c1.269-0.33 2.339-1.045 3.106-2.011l0.009-0.012c0.978-1.233 1.412-2.772 1.221-4.334-0.196-1.602-1.021-2.981-2.216-3.903l-0.013-0.010c-1.208-0.931-2.714-1.345-4.241-1.166s-2.895 0.932-3.855 2.118c-0.822 1.017-1.271 2.243-1.297 3.547-0.043 2.116-0.772 4.171-2.053 5.786l-1.403 1.767c-0.245 0.307-0.392 0.7-0.392 1.128 0 0.574 0.266 1.086 0.682 1.419l0.004 0.003 1.322 1.049c0.307 0.245 0.7 0.392 1.128 0.392 0.574 0 1.086-0.266 1.419-0.682l0.003-0.004 1.403-1.767c1.296-1.633 3.081-2.784 5.174-3.321zM12.154 14.259c0.021-1.179 0.445-2.255 1.138-3.101l-0.007 0.009c1.723-2.13 4.888-2.502 7.057-0.83 1.087 0.84 1.778 2.050 1.944 3.412 0.025 0.188 0.039 0.406 0.039 0.628 0 1.196-0.416 2.295-1.111 3.16l0.008-0.010c-0.677 0.852-1.609 1.476-2.68 1.755l-0.035 0.008c-2.205 0.565-4.101 1.763-5.492 3.466l-2.989-2.373c1.329-1.725 2.084-3.894 2.129-6.125zM8.694 22.063l0.188-0.237 2.721 2.719-0.074 0.093c-0.039 0.049-0.081 0.092-0.125 0.132l-0.001 0.001-2.709-2.707zM9.35 21.236l0.211-0.266 2.993 2.376-0.483 0.609-2.721-2.719zM8.709 23.76c-0.246-0.197-0.403-0.498-0.403-0.835 0-0.063 0.005-0.125 0.016-0.184l-0.001 0.006 2.292 2.29c-0.222-0.017-0.422-0.1-0.584-0.229l0.002 0.002-1.322-1.049z"></path>
<path d="M13.992 12.507c0.099-0.171 0.213-0.338 0.339-0.494 0.052-0.064 0.083-0.146 0.083-0.235 0-0.207-0.167-0.374-0.374-0.374-0.117 0-0.222 0.054-0.29 0.138l-0.001 0.001c-0.151 0.187-0.287 0.385-0.406 0.59-0.035 0.056-0.056 0.124-0.056 0.197 0 0.207 0.168 0.374 0.374 0.374 0.142 0 0.266-0.079 0.329-0.196l0.001-0.002zM12.185 18.324c0.063 0.050 0.144 0.081 0.232 0.081 0.16 0 0.297-0.1 0.35-0.242l0.001-0.003c0.437-1.149 0.703-2.476 0.732-3.862l0-0.012c0.005-0.219 0.028-0.438 0.069-0.65 0.005-0.024 0.008-0.051 0.008-0.079 0-0.206-0.167-0.374-0.374-0.374-0.184 0-0.336 0.132-0.368 0.307l-0 0.002c-0.048 0.231-0.078 0.5-0.083 0.774l-0 0.005c-0.027 1.31-0.276 2.555-0.711 3.707l0.025-0.077c-0.015 0.038-0.023 0.083-0.023 0.129 0 0.118 0.055 0.224 0.14 0.292l0.001 0.001zM19.519 17.811c-0.064-0.118-0.188-0.197-0.329-0.197-0.065 0-0.126 0.016-0.179 0.045l0.002-0.001c-0.264 0.142-0.547 0.252-0.842 0.328-0.163 0.043-0.281 0.189-0.281 0.362 0 0.206 0.167 0.374 0.374 0.374 0.033 0 0.065-0.004 0.096-0.012l-0.003 0.001c0.384-0.1 0.72-0.234 1.033-0.405l-0.024 0.012c0.118-0.064 0.197-0.188 0.197-0.329 0-0.065-0.017-0.126-0.046-0.179l0.001 0.002zM19.563 11.437c1.615 1.282 1.886 3.638 0.604 5.253-0.073 0.091-0.15 0.181-0.231 0.265-0.064 0.067-0.104 0.158-0.104 0.258 0 0.206 0.167 0.374 0.374 0.374 0.106 0 0.202-0.044 0.27-0.116l0-0c0.096-0.101 0.189-0.207 0.276-0.317 1.538-1.938 1.213-4.766-0.725-6.304-0.063-0.050-0.144-0.081-0.232-0.081-0.206 0-0.374 0.167-0.374 0.374 0 0.118 0.055 0.224 0.141 0.292l0.001 0.001zM21.266 9.291c0.162 0.129 0.397 0.101 0.525-0.060l1.302-1.64c0.051-0.063 0.081-0.144 0.081-0.233 0-0.207-0.167-0.374-0.374-0.374-0.118 0-0.224 0.055-0.292 0.141l-0.001 0.001-1.302 1.64c-0.050 0.063-0.081 0.144-0.081 0.232 0 0.118 0.055 0.224 0.141 0.292l0.001 0.001zM17.843 7.518c-0.003 0.016-0.004 0.036-0.004 0.055 0 0.207 0.167 0.374 0.374 0.374 0.187 0 0.342-0.137 0.37-0.317l0-0.002 0.307-2.071c0.003-0.016 0.004-0.036 0.004-0.055 0-0.207-0.167-0.374-0.374-0.374-0.187 0-0.342 0.138-0.37 0.317l-0 0.002-0.307 2.071zM20.857 22.66l-0.769-1.947c-0.056-0.14-0.191-0.237-0.348-0.237-0.207 0-0.374 0.167-0.374 0.374 0 0.049 0.010 0.097 0.027 0.14l-0.001-0.003 0.769 1.947c0.056 0.14 0.191 0.237 0.348 0.237 0.206 0 0.374-0.167 0.374-0.374 0-0.049-0.010-0.097-0.027-0.14l0.001 0.003zM13.539 6.173l0.769 1.947c0.056 0.14 0.191 0.237 0.348 0.237 0.206 0 0.374-0.167 0.374-0.374 0-0.049-0.010-0.097-0.027-0.14l0.001 0.003-0.769-1.947c-0.056-0.14-0.191-0.237-0.348-0.237-0.206 0-0.374 0.167-0.374 0.374 0 0.049 0.010 0.097 0.027 0.14l-0.001-0.003zM24.488 19.726l-1.64-1.302c-0.063-0.050-0.144-0.081-0.232-0.081-0.206 0-0.374 0.167-0.374 0.374 0 0.118 0.055 0.224 0.141 0.292l0.001 0.001 1.64 1.302c0.063 0.051 0.144 0.081 0.233 0.081 0.207 0 0.374-0.167 0.374-0.374 0-0.118-0.055-0.224-0.141-0.292l-0.001-0.001zM12.073 10.349c0.051-0.063 0.081-0.144 0.081-0.233 0-0.118-0.055-0.224-0.141-0.292l-0.001-0.001-1.64-1.302c-0.063-0.051-0.144-0.081-0.233-0.081-0.207 0-0.374 0.167-0.374 0.374 0 0.118 0.055 0.224 0.141 0.292l0.001 0.001 1.64 1.302c0.162 0.129 0.397 0.101 0.525-0.060zM23.809 15.725c0.050 0.039 0.11 0.067 0.177 0.077l2.070 0.307c0.017 0.003 0.036 0.004 0.055 0.004 0.207 0 0.374-0.167 0.374-0.374 0-0.187-0.138-0.342-0.317-0.37l-0.002-0-2.070-0.307c-0.017-0.003-0.036-0.004-0.055-0.004-0.206 0-0.374 0.167-0.374 0.374 0 0.118 0.055 0.224 0.141 0.293l0.001 0.001zM10.409 13.031l-2.070-0.307c-0.017-0.003-0.036-0.004-0.055-0.004-0.207 0-0.374 0.167-0.374 0.374 0 0.187 0.137 0.342 0.317 0.37l0.002 0 2.071 0.307c0.016 0.003 0.035 0.004 0.055 0.004 0.207 0 0.374-0.167 0.374-0.374 0-0.187-0.138-0.342-0.317-0.37l-0.002-0zM23.284 12.012c0.056 0.14 0.191 0.237 0.348 0.237 0.050 0 0.097-0.010 0.14-0.027l-0.003 0.001 1.947-0.769c0.14-0.056 0.237-0.191 0.237-0.348 0-0.207-0.167-0.374-0.374-0.374-0.049 0-0.097 0.010-0.14 0.027l0.003-0.001-1.947 0.769c-0.14 0.056-0.237 0.191-0.237 0.348 0 0.050 0.010 0.097 0.027 0.14l-0.001-0.002z"></path>
</symbol>
<symbol id="icon-light-bulb-tab" viewBox="0 0 32 32">
<path d="M18.623 19.941c1.265-0.328 2.33-1.041 3.095-2.003l0.009-0.012c0.786-0.977 1.261-2.233 1.261-3.601 0-0.253-0.016-0.502-0.048-0.746l0.003 0.029c-0.195-1.596-1.017-2.97-2.208-3.889l-0.013-0.010c-1.204-0.928-2.704-1.34-4.225-1.161s-2.885 0.929-3.84 2.11c-0.784 0.957-1.268 2.187-1.292 3.528l-0 0.005c-0.042 2.109-0.769 4.156-2.046 5.765l-1.397 1.76c-0.244 0.306-0.391 0.697-0.391 1.124 0 0.572 0.265 1.082 0.679 1.413l0.004 0.003 1.317 1.045c0.306 0.244 0.697 0.391 1.124 0.391 0.572 0 1.082-0.265 1.414-0.68l0.003-0.004 1.397-1.76c1.291-1.627 3.070-2.774 5.155-3.308zM12.109 14.206c0.021-1.174 0.443-2.246 1.134-3.089l-0.007 0.009c1.716-2.122 4.87-2.493 7.031-0.827 1.050 0.81 1.766 2.008 1.934 3.375l0.002 0.024c0.025 0.188 0.039 0.405 0.039 0.626 0 1.192-0.415 2.287-1.107 3.149l0.008-0.010c-0.674 0.849-1.603 1.47-2.671 1.748l-0.035 0.008c-2.197 0.564-4.086 1.756-5.472 3.453l-2.978-2.364c1.325-1.718 2.077-3.88 2.121-6.102zM8.662 21.982l0.188-0.236 2.711 2.709-0.073 0.092c-0.039 0.049-0.081 0.092-0.126 0.132l-2.699-2.697zM9.315 21.158l0.211-0.265 2.982 2.367-0.481 0.607-2.711-2.709zM8.677 23.672c-0.246-0.196-0.402-0.496-0.402-0.832 0-0.062 0.005-0.124 0.016-0.183l-0.001 0.006 2.284 2.282c-0.222-0.017-0.421-0.099-0.582-0.228l0.002 0.002-1.317-1.046z"></path>
<path d="M13.941 12.461c0.099-0.171 0.212-0.336 0.338-0.492 0.053-0.064 0.085-0.147 0.085-0.237 0-0.206-0.167-0.373-0.373-0.373-0.118 0-0.223 0.055-0.291 0.14l-0.001 0.001c-0.15 0.186-0.286 0.384-0.405 0.588-0.031 0.053-0.050 0.118-0.050 0.186 0 0.206 0.167 0.373 0.373 0.373 0.137 0 0.257-0.074 0.322-0.185l0.001-0.002zM12.14 18.256c0.063 0.050 0.144 0.081 0.232 0.081 0.159 0 0.296-0.1 0.349-0.241l0.001-0.003c0.436-1.144 0.701-2.467 0.729-3.848l0-0.012c0.004-0.218 0.028-0.437 0.069-0.648 0.004-0.022 0.007-0.046 0.007-0.072 0-0.206-0.167-0.373-0.373-0.373-0.18 0-0.331 0.128-0.365 0.298l-0 0.002c-0.050 0.253-0.078 0.515-0.083 0.776-0.026 1.306-0.275 2.545-0.708 3.694l0.025-0.076c-0.015 0.038-0.023 0.083-0.023 0.129 0 0.118 0.055 0.223 0.14 0.291l0.001 0.001zM19.448 17.745c-0.064-0.118-0.187-0.196-0.328-0.196-0.065 0-0.125 0.016-0.178 0.045l0.002-0.001c-0.241 0.132-0.52 0.244-0.813 0.321l-0.026 0.006c-0.166 0.040-0.286 0.187-0.286 0.362 0 0.206 0.167 0.372 0.372 0.372 0.035 0 0.070-0.005 0.102-0.014l-0.003 0.001c0.352-0.090 0.69-0.222 1.006-0.392 0.118-0.064 0.196-0.187 0.196-0.328 0-0.065-0.016-0.125-0.045-0.178l0.001 0.002zM19.491 11.395c1.609 1.277 1.878 3.625 0.601 5.234-0.077 0.097-0.152 0.183-0.231 0.265l0.001-0.001c-0.064 0.067-0.103 0.157-0.103 0.257 0 0.206 0.167 0.373 0.373 0.373 0.106 0 0.201-0.044 0.269-0.115l0-0c0.096-0.1 0.188-0.206 0.275-0.316 1.533-1.93 1.209-4.748-0.722-6.281-0.063-0.050-0.144-0.081-0.232-0.081-0.206 0-0.373 0.167-0.373 0.373 0 0.118 0.055 0.223 0.14 0.291l0.001 0.001zM21.188 9.257c0.063 0.050 0.144 0.081 0.232 0.081 0.118 0 0.223-0.055 0.291-0.14l0.001-0.001 1.297-1.634c0.050-0.063 0.081-0.144 0.081-0.232 0-0.206-0.167-0.373-0.373-0.373-0.118 0-0.223 0.055-0.291 0.14l-0.001 0.001-1.297 1.634c-0.050 0.063-0.081 0.144-0.081 0.231 0 0.118 0.055 0.223 0.14 0.291l0.001 0.001zM17.778 7.491c-0.003 0.016-0.004 0.035-0.004 0.055 0 0.206 0.167 0.373 0.373 0.373 0.186 0 0.341-0.137 0.368-0.316l0-0.002 0.307-2.062c0.003-0.016 0.004-0.036 0.004-0.055 0-0.206-0.167-0.373-0.373-0.373-0.186 0-0.341 0.137-0.368 0.316l-0 0.002-0.306 2.062zM20.78 22.577l-0.766-1.94c-0.056-0.139-0.19-0.236-0.346-0.236-0.206 0-0.373 0.167-0.373 0.373 0 0.049 0.010 0.096 0.027 0.139l-0.001-0.003 0.766 1.94c0.056 0.139 0.19 0.236 0.346 0.236 0.206 0 0.373-0.167 0.373-0.373 0-0.049-0.010-0.096-0.027-0.139l0.001 0.003zM13.489 6.15l0.766 1.94c0.055 0.139 0.189 0.236 0.345 0.236 0.050 0 0.097-0.010 0.141-0.028l-0.002 0.001c0.139-0.056 0.235-0.19 0.235-0.346 0-0.049-0.010-0.096-0.027-0.139l0.001 0.003-0.766-1.94c-0.056-0.139-0.19-0.236-0.346-0.236-0.206 0-0.373 0.167-0.373 0.373 0 0.049 0.010 0.096 0.027 0.139l-0.001-0.003zM24.398 19.653l-1.634-1.297c-0.063-0.050-0.144-0.081-0.232-0.081-0.206 0-0.373 0.167-0.373 0.373 0 0.118 0.055 0.223 0.14 0.291l0.001 0.001 1.634 1.297c0.063 0.050 0.144 0.081 0.232 0.081 0.206 0 0.373-0.167 0.373-0.373 0-0.118-0.055-0.223-0.14-0.291l-0.001-0.001zM12.028 10.31c0.050-0.063 0.081-0.144 0.081-0.232 0-0.118-0.055-0.223-0.14-0.291l-0.001-0.001-1.634-1.297c-0.063-0.050-0.144-0.081-0.232-0.081-0.206 0-0.373 0.167-0.373 0.373 0 0.118 0.055 0.223 0.14 0.291l0.001 0.001 1.634 1.297c0.063 0.050 0.144 0.081 0.232 0.081 0.118 0 0.223-0.055 0.291-0.14l0.001-0.001zM23.721 15.667c0.050 0.039 0.11 0.067 0.177 0.076l2.062 0.306c0.017 0.003 0.036 0.004 0.055 0.004 0.206 0 0.373-0.167 0.373-0.373 0-0.187-0.137-0.341-0.316-0.368l-0.002-0-2.062-0.306c-0.017-0.003-0.037-0.004-0.056-0.004-0.206 0-0.372 0.167-0.372 0.373 0 0.118 0.055 0.224 0.141 0.292l0.001 0.001zM10.371 12.983l-2.063-0.307c-0.017-0.003-0.036-0.004-0.055-0.004-0.206 0-0.373 0.167-0.373 0.373 0 0.187 0.137 0.341 0.316 0.368l0.002 0 2.063 0.306c0.016 0.003 0.035 0.004 0.055 0.004 0.206 0 0.373-0.167 0.373-0.373 0-0.186-0.137-0.341-0.316-0.368l-0.002-0zM23.198 11.968c0.056 0.139 0.19 0.236 0.346 0.236 0.049 0 0.097-0.010 0.14-0.027l-0.003 0.001 1.94-0.766c0.139-0.056 0.236-0.19 0.236-0.346 0-0.206-0.167-0.373-0.373-0.373-0.049 0-0.096 0.010-0.139 0.027l0.003-0.001-1.94 0.767c-0.139 0.056-0.235 0.19-0.235 0.346 0 0.049 0.010 0.096 0.027 0.139l-0.001-0.002z"></path>
</symbol>
<symbol id="icon-burger-menu-tab" viewBox="0 0 56 32">
<path d="M1.882 0.007h52.706c1.040 0 1.882 0.843 1.882 1.882v1.882c0 1.040-0.843 1.882-1.882 1.882h-52.706c-1.040 0-1.882-0.843-1.882-1.882v-1.882c0-1.040 0.843-1.882 1.882-1.882z"></path>
<path d="M1.882 13.184h52.706c1.040 0 1.882 0.843 1.882 1.882v1.882c0 1.040-0.843 1.882-1.882 1.882h-52.706c-1.040 0-1.882-0.843-1.882-1.882v-1.882c0-1.040 0.843-1.882 1.882-1.882z"></path>
<path d="M1.882 26.36h36.179c1.040 0 1.882 0.843 1.882 1.882v1.882c0 1.040-0.843 1.882-1.882 1.882h-36.179c-1.040 0-1.882-0.843-1.882-1.882v-1.882c0-1.040 0.843-1.882 1.882-1.882z"></path>
</symbol>
<symbol id="icon-burger-menu-mob" viewBox="0 0 57 32">
<path d="M1.684 0.001h53.106c0.93 0 1.684 0.754 1.684 1.684v2.279c0 0.93-0.754 1.684-1.684 1.684h-53.106c-0.93 0-1.684-0.754-1.684-1.684v-2.279c0-0.93 0.754-1.684 1.684-1.684z"></path>
<path d="M1.684 13.179h53.106c0.93 0 1.684 0.754 1.684 1.684v2.279c0 0.93-0.754 1.684-1.684 1.684h-53.106c-0.93 0-1.684-0.754-1.684-1.684v-2.279c0-0.93 0.754-1.684 1.684-1.684z"></path>
<path d="M1.684 26.356h36.577c0.93 0 1.684 0.754 1.684 1.684v2.279c0 0.93-0.754 1.684-1.684 1.684h-36.577c-0.93 0-1.684-0.754-1.684-1.684v-2.279c0-0.93 0.754-1.684 1.684-1.684z"></path>
</symbol>
</defs>
</svg>
